# xmcd
#
# Track frame offsets:
#	150
#	19364
#	40075
#	59624
#	81863
#	96023
#	115849
#	136590
#	153326
#	170379
#	193296
#	209401
#	229944
#	245105
#	265495
#	283326
#	305091
#	329274
#
# Disc length: 4646 seconds
#
# Revision: 0
# Processed by: cddbd v1.5.1PL0 Copyright (c) Steve Scherf et al.
# Submitted via: audiograbber 1.83.01
#
DISCID=0f122412
DTITLE=R. Kelly - The R. In R&B Greatest Hits CD1
DYEAR=2003
DGENRE=R&B
TTITLE0=Bump N' Grind
TTITLE1=Your Body's Callin'
TTITLE2=Sex Me (Part 1)
TTITLE3=Gotham City
TTITLE4=Ignition - Remix
TTITLE5=Down Low (Nobody Has To Know) (Featuring Ronald and Ernie Isley)
TTITLE6=When A Woman's Fed Up
TTITLE7=Thoia Thoing
TTITLE8=Touched A Dream
TTITLE9=I Wish
TTITLE10=Ghetto Religion (Featuring Wyclef Jean)
TTITLE11=The Storm Is Over Now
TTITLE12=She's Got That Vibe - R.Kelly and Public Announcement
TTITLE13=If I Could Turn Back The Hands Of Time
TTITLE14=The World's Greatest
TTITLE15=I'm Your Angel (Duet with Celine Dion)
TTITLE16=I Believe I Can Fly
TTITLE17=Home Alone (Featuring Keith Murray)
EXTD=
EXTT0=
EXTT1=
EXTT2=
EXTT3=
EXTT4=
EXTT5=
EXTT6=
EXTT7=
EXTT8=
EXTT9=
EXTT10=
EXTT11=
EXTT12=
EXTT13=
EXTT14=
EXTT15=
EXTT16=
EXTT17=
PLAYORDER=
